<?xml version="1.0" encoding="UTF-8" standalone="no"?>
<!-- Created with Inkscape (http://www.inkscape.org/) -->

<svg
   xmlns:dc="http://purl.org/dc/elements/1.1/"
   xmlns:cc="http://creativecommons.org/ns#"
   xmlns:rdf="http://www.w3.org/1999/02/22-rdf-syntax-ns#"
   xmlns:svg="http://www.w3.org/2000/svg"
   xmlns="http://www.w3.org/2000/svg"
   xmlns:sodipodi="http://sodipodi.sourceforge.net/DTD/sodipodi-0.dtd"
   xmlns:inkscape="http://www.inkscape.org/namespaces/inkscape"
   id="svg8"
   version="1.1"
   viewBox="0 0 79.374989 79.374987"
   height="300"
   width="300"
   inkscape:version="0.92.4 (5da689c313, 2019-01-14)"
   sodipodi:docname="ocean-master-thesis-logo.svg"
   inkscape:export-filename="D:\GitProjects\_masterthesis\master-thesis-ocpm\media\logo\ocean-logo-300.png"
   inkscape:export-xdpi="96"
   inkscape:export-ydpi="96">
  <defs
     id="defs2">
    <marker
       inkscape:stockid="Arrow1Sstart"
       orient="auto"
       refY="0"
       refX="0"
       id="Arrow1Sstart"
       style="overflow:visible"
       inkscape:isstock="true">
      <path
         id="path4591"
         d="M 0,0 5,-5 -12.5,0 5,5 Z"
         style="fill:#176fc1;fill-opacity:1;fill-rule:evenodd;stroke:#176fc1;stroke-width:1.00000003pt;stroke-opacity:1"
         transform="matrix(0.2,0,0,0.2,1.2,0)"
         inkscape:connector-curvature="0" />
    </marker>
    <marker
       inkscape:stockid="Torso"
       orient="auto"
       refY="0"
       refX="0"
       id="Torso"
       style="overflow:visible"
       inkscape:isstock="true">
      <g
         id="g4805"
         transform="scale(0.7)"
         style="fill:#176fc1;fill-opacity:1;stroke:#176fc1;stroke-opacity:1">
        <path
           id="path4791"
           d="m -4.7792281,-3.239542 c 2.350374,0.3659393 5.30026732,1.9375477 5.03715532,3.62748546 C -0.00518779,2.0778819 -2.2126741,2.6176539 -4.5630471,2.2517169 -6.9134221,1.8857769 -8.521035,0.75201414 -8.257922,-0.93792336 -7.994809,-2.6278615 -7.1296041,-3.6054813 -4.7792281,-3.239542 Z"
           style="fill:#176fc1;fill-opacity:1;fill-rule:evenodd;stroke:#176fc1;stroke-width:1.25;stroke-opacity:1"
           inkscape:connector-curvature="0" />
        <path
           id="path4793"
           d="M 4.4598789,0.08866574 C -2.5564571,-4.378332 5.2248769,-3.9061806 -0.84829578,-8.7197331"
           style="fill:#176fc1;fill-opacity:1;fill-rule:evenodd;stroke:#176fc1;stroke-width:1.00000003pt;stroke-opacity:1"
           inkscape:connector-curvature="0" />
        <path
           id="path4795"
           d="M 4.9298719,0.05752074 C -1.3872731,1.7494689 1.8027579,5.4782079 -4.9448731,7.5462725"
           style="fill:#176fc1;fill-opacity:1;fill-rule:evenodd;stroke:#176fc1;stroke-width:1.00000003pt;stroke-opacity:1"
           inkscape:connector-curvature="0" />
        <rect
           id="rect4797"
           transform="matrix(0.527536,-0.849533,0.887668,0.460484,0,0)"
           y="-1.7408575"
           x="-10.391706"
           height="2.7608147"
           width="2.6366582"
           style="fill:#176fc1;fill-opacity:1;fill-rule:evenodd;stroke:#176fc1;stroke-width:1.00000003pt;stroke-opacity:1" />
        <rect
           id="rect4799"
           transform="matrix(0.671205,-0.741272,0.790802,0.612072,0,0)"
           y="-7.9629307"
           x="4.9587269"
           height="2.8614161"
           width="2.7327356"
           style="fill:#176fc1;fill-opacity:1;fill-rule:evenodd;stroke:#176fc1;stroke-width:1.00000003pt;stroke-opacity:1" />
        <path
           id="path4801"
           transform="matrix(0,-1.109517,1.109517,0,25.96648,19.71619)"
           d="m 16.779951,-28.685045 a 0.60731727,0.60731727 0 1 0 -1.214634,0 0.60731727,0.60731727 0 1 0 1.214634,0 z"
           style="fill:#176fc1;fill-opacity:1;fill-rule:evenodd;stroke:#176fc1;stroke-width:1.00000003pt;stroke-opacity:1"
           inkscape:connector-curvature="0" />
        <path
           id="path4803"
           transform="matrix(0,-1.109517,1.109517,0,26.8245,16.99126)"
           d="m 16.779951,-28.685045 a 0.60731727,0.60731727 0 1 0 -1.214634,0 0.60731727,0.60731727 0 1 0 1.214634,0 z"
           style="fill:#176fc1;fill-opacity:1;fill-rule:evenodd;stroke:#176fc1;stroke-width:1.00000003pt;stroke-opacity:1"
           inkscape:connector-curvature="0" />
      </g>
    </marker>
    <marker
       inkscape:stockid="TriangleInM"
       orient="auto"
       refY="0"
       refX="0"
       id="TriangleInM"
       style="overflow:visible"
       inkscape:isstock="true">
      <path
         id="path4715"
         d="M 5.77,0 -2.88,5 V -5 Z"
         style="fill:#176fc1;fill-opacity:1;fill-rule:evenodd;stroke:#176fc1;stroke-width:1.00000003pt;stroke-opacity:1"
         transform="scale(-0.4)"
         inkscape:connector-curvature="0" />
    </marker>
    <marker
       inkscape:stockid="Arrow2Mstart"
       orient="auto"
       refY="0"
       refX="0"
       id="Arrow2Mstart"
       style="overflow:visible"
       inkscape:isstock="true">
      <path
         id="path4603"
         style="fill:#176fc1;fill-opacity:1;fill-rule:evenodd;stroke:#176fc1;stroke-width:0.625;stroke-linejoin:round;stroke-opacity:1"
         d="M 8.7185878,4.0337352 -2.2072895,0.01601326 8.7185884,-4.0017078 c -1.7454984,2.3720609 -1.7354408,5.6174519 -6e-7,8.035443 z"
         transform="scale(0.6)"
         inkscape:connector-curvature="0" />
    </marker>
    <marker
       inkscape:stockid="Arrow1Lstart"
       orient="auto"
       refY="0"
       refX="0"
       id="Arrow1Lstart"
       style="overflow:visible"
       inkscape:isstock="true">
      <path
         id="path4579"
         d="M 0,0 5,-5 -12.5,0 5,5 Z"
         style="fill:#176fc1;fill-opacity:1;fill-rule:evenodd;stroke:#176fc1;stroke-width:1.00000003pt;stroke-opacity:1"
         transform="matrix(0.8,0,0,0.8,10,0)"
         inkscape:connector-curvature="0" />
    </marker>
    <marker
       inkscape:stockid="DotS"
       orient="auto"
       refY="0"
       refX="0"
       id="marker6009"
       style="overflow:visible"
       inkscape:isstock="true">
      <path
         id="path6007"
         d="m -2.5,-1 c 0,2.76 -2.24,5 -5,5 -2.76,0 -5,-2.24 -5,-5 0,-2.76 2.24,-5 5,-5 2.76,0 5,2.24 5,5 z"
         style="fill:#ffffff;fill-opacity:1;fill-rule:evenodd;stroke:#ffffff;stroke-width:1.00000003pt;stroke-opacity:1"
         transform="matrix(0.2,0,0,0.2,1.48,0.2)"
         inkscape:connector-curvature="0" />
    </marker>
    <marker
       inkscape:stockid="DiamondSend"
       orient="auto"
       refY="0"
       refX="0"
       id="DiamondSend"
       style="overflow:visible"
       inkscape:isstock="true">
      <path
         id="path4682"
         d="M 0,-7.0710768 -7.0710894,0 0,7.0710589 7.0710462,0 Z"
         style="fill:#ffffff;fill-opacity:1;fill-rule:evenodd;stroke:#ffffff;stroke-width:1.00000003pt;stroke-opacity:1"
         transform="matrix(0.2,0,0,0.2,-1.2,0)"
         inkscape:connector-curvature="0" />
    </marker>
    <marker
       inkscape:stockid="EmptyDiamondSstart"
       orient="auto"
       refY="0"
       refX="0"
       id="EmptyDiamondSstart"
       style="overflow:visible"
       inkscape:isstock="true">
      <path
         id="path4700"
         d="M 0,-7.0710768 -7.0710894,0 0,7.0710589 7.0710462,0 Z"
         style="fill:#176fc1;fill-opacity:1;fill-rule:evenodd;stroke:#176fc1;stroke-width:1.00000003pt;stroke-opacity:1"
         transform="matrix(0.2,0,0,0.2,1.2,0)"
         inkscape:connector-curvature="0" />
    </marker>
    <marker
       inkscape:isstock="true"
       style="overflow:visible"
       id="marker5356"
       refX="0"
       refY="0"
       orient="auto"
       inkscape:stockid="DotS">
      <path
         transform="matrix(0.2,0,0,0.2,1.48,0.2)"
         style="fill:#3e9a2e;fill-opacity:1;fill-rule:evenodd;stroke:#ffffff;stroke-width:1.00000003pt;stroke-opacity:1"
         d="m -2.5,-1 c 0,2.76 -2.24,5 -5,5 -2.76,0 -5,-2.24 -5,-5 0,-2.76 2.24,-5 5,-5 2.76,0 5,2.24 5,5 z"
         id="path5354"
         inkscape:connector-curvature="0" />
    </marker>
    <marker
       inkscape:stockid="SquareM"
       orient="auto"
       refY="0"
       refX="0"
       id="SquareM"
       style="overflow:visible"
       inkscape:isstock="true">
      <path
         id="path4652"
         d="M -5,-5 V 5 H 5 V -5 Z"
         style="fill:#3e9a2e;fill-opacity:1;fill-rule:evenodd;stroke:#ffffff;stroke-width:1.00000003pt;stroke-opacity:1"
         transform="scale(0.4)"
         inkscape:connector-curvature="0" />
    </marker>
    <marker
       inkscape:stockid="Scissors"
       orient="auto"
       refY="0"
       refX="0"
       id="Scissors"
       style="overflow:visible"
       inkscape:isstock="true">
      <path
         id="schere"
         d="M 9.0898857,-3.6061018 C 8.1198849,-4.7769976 6.3697607,-4.7358294 5.0623558,-4.2327734 l -8.2124046,3.0779029 c -2.3882933,-1.3067135 -4.7482873,-0.9325372 -4.7482873,-1.5687873 0,-0.4973164 0.4566662,-0.3883222 0.3883068,-1.6831941 -0.065635,-1.2432767 -1.3635771,-2.1630796 -2.5903987,-2.0816435 -1.227271,-0.00735 -2.499439,0.9331613 -2.510341,2.2300611 -0.09143,1.3063864 1.007209,2.5196896 2.306764,2.6052316 1.5223406,0.2266616 4.218258,-0.6955566 5.482945,1.57086006 -0.9422847,1.73825774 -2.6140244,1.74307674 -4.1255107,1.65607034 -1.2548743,-0.072235 -2.7620933,0.2873979 -3.3606483,1.5208605 -0.578367,1.1820862 -0.0112,2.8646022 1.316749,3.226412 1.3401912,0.4918277 3.1806689,-0.129711 3.4993722,-1.6707242 0.2456585,-1.187823 -0.5953659,-1.7459574 -0.2725074,-2.1771537 0.2436135,-0.32536 1.7907806,-0.1368452 4.5471053,-1.3748244 L 5.6763468,4.2330688 C 6.8000164,4.5467672 8.1730685,4.5362646 9.1684433,3.4313614 l -9.22008423,-3.48508362 z m -18.3078016,-1.900504 c 1.294559,0.7227998 1.1888392,2.6835702 -0.1564272,3.0632889 -1.2165179,0.423661 -2.7710269,-0.7589694 -2.3831779,-2.0774648 0.227148,-1.0818519 1.653387,-1.480632 2.5396051,-0.9858241 z m 0.056264,8.0173649 c 1.3508301,0.4988648 1.1214429,2.7844356 -0.2522207,3.091609 -0.9110594,0.3163391 -2.2135494,-0.1387976 -2.3056964,-1.2121394 -0.177609,-1.305055 1.356085,-2.4841482 2.5579171,-1.8794696 z"
         style="fill:#176fc1;fill-opacity:1;stroke:#176fc1;stroke-opacity:1"
         inkscape:connector-curvature="0" />
    </marker>
    <marker
       inkscape:stockid="DiamondS"
       orient="auto"
       refY="0"
       refX="0"
       id="DiamondS"
       style="overflow:visible"
       inkscape:isstock="true">
      <path
         id="path4664"
         d="M 0,-7.0710768 -7.0710894,0 0,7.0710589 7.0710462,0 Z"
         style="fill:#3e9a2e;fill-opacity:1;fill-rule:evenodd;stroke:#ffffff;stroke-width:1.00000003pt;stroke-opacity:1"
         transform="scale(0.2)"
         inkscape:connector-curvature="0" />
    </marker>
    <marker
       inkscape:stockid="Arrow1Send"
       orient="auto"
       refY="0"
       refX="0"
       id="Arrow1Send"
       style="overflow:visible"
       inkscape:isstock="true">
      <path
         id="path4594"
         d="M 0,0 5,-5 -12.5,0 5,5 Z"
         style="fill:#3e9a2e;fill-opacity:1;fill-rule:evenodd;stroke:#ffffff;stroke-width:1.00000003pt;stroke-opacity:1"
         transform="matrix(-0.2,0,0,-0.2,-1.2,0)"
         inkscape:connector-curvature="0" />
    </marker>
    <marker
       inkscape:stockid="DotM"
       orient="auto"
       refY="0"
       refX="0"
       id="DotM"
       style="overflow:visible"
       inkscape:isstock="true">
      <path
         id="path4643"
         d="m -2.5,-1 c 0,2.76 -2.24,5 -5,5 -2.76,0 -5,-2.24 -5,-5 0,-2.76 2.24,-5 5,-5 2.76,0 5,2.24 5,5 z"
         style="fill:#ffffff;fill-opacity:1;fill-rule:evenodd;stroke:#ffffff;stroke-width:1.00000003pt;stroke-opacity:1"
         transform="matrix(0.4,0,0,0.4,2.96,0.4)"
         inkscape:connector-curvature="0" />
    </marker>
    <inkscape:path-effect
       effect="interpolate"
       id="path-effect840"
       is_visible="true"
       trajectory="#path4553"
       equidistant_spacing="true"
       steps="5" />
    <inkscape:path-effect
       effect="interpolate_points"
       id="path-effect838"
       is_visible="true"
       interpolator_type="CubicBezierJohan" />
    <clipPath
       clipPathUnits="userSpaceOnUse"
       id="clipPath166-1">
      <path
         d="M 0,0 H 595.276 V 841.89 H 0 Z"
         id="path164-3"
         inkscape:connector-curvature="0" />
    </clipPath>
  </defs>
  <sodipodi:namedview
     id="base"
     pagecolor="#000000"
     bordercolor="#666666"
     borderopacity="1.0"
     inkscape:pageopacity="0"
     inkscape:pageshadow="2"
     inkscape:zoom="1.4"
     inkscape:cx="158.64004"
     inkscape:cy="160.28571"
     inkscape:document-units="mm"
     inkscape:current-layer="layer1"
     showgrid="false"
     inkscape:object-paths="true"
     inkscape:window-width="1366"
     inkscape:window-height="705"
     inkscape:window-x="1912"
     inkscape:window-y="296"
     inkscape:window-maximized="1"
     inkscape:snap-smooth-nodes="true"
     inkscape:snap-intersection-paths="false"
     inkscape:object-nodes="true"
     showguides="true"
     inkscape:snap-midpoints="false"
     inkscape:snap-object-midpoints="false"
     fit-margin-top="0"
     fit-margin-left="0"
     fit-margin-right="0"
     fit-margin-bottom="0"
     units="px" />
  <metadata
     id="metadata5">
    <rdf:RDF>
      <cc:Work
         rdf:about="">
        <dc:format>image/svg+xml</dc:format>
        <dc:type
           rdf:resource="http://purl.org/dc/dcmitype/StillImage" />
        <dc:title></dc:title>
      </cc:Work>
    </rdf:RDF>
  </metadata>
  <g
     inkscape:label="Ebene 1"
     inkscape:groupmode="layer"
     id="layer1"
     transform="translate(-103.84707,-90.53856)">
    <path
       inkscape:label="merged contours"
       inkscape:connector-curvature="0"
       id="path11009"
       d="m 174.62673,101.24695 a 1.50015,1.50015 0 0 0 -1.39681,1.12293 c -0.37703,1.45152 -1.19807,2.51306 -2.56264,3.48661 -1.36458,0.97355 -3.27558,1.79002 -5.56813,2.50992 -4.58515,1.43982 -10.64832,2.50176 -16.87133,4.42764 -6.22301,1.92588 -12.64605,4.74056 -17.9312,9.81232 -4.84245,4.64694 -8.66705,11.1832 -10.50427,20.40961 a 3.0003001,3.0003001 0 0 0 -0.30851,0.13332 c 0,0 -5.82225,3.011 -9.99629,10.84792 a 3.0003001,3.0003001 0 1 0 5.29529,2.82205 c 3.43893,-6.45672 7.37319,-8.29665 7.37319,-8.29665 a 3.0003001,3.0003001 0 0 0 0.41703,-0.24805 c 13.06077,5.69063 23.26294,6.42172 31.15314,3.95686 8.36547,-2.61333 13.93808,-8.78286 17.48213,-15.78715 3.54405,-7.00428 5.14253,-14.88183 5.68958,-21.32221 0.27353,-3.22019 0.2814,-6.07768 0.12092,-8.31422 -0.0803,-1.11827 -0.20019,-2.08128 -0.36329,-2.87941 -0.16311,-0.79812 -0.29811,-1.39772 -0.74207,-2.03708 a 1.50015,1.50015 0 0 0 -1.28674,-0.64441 z m -0.63097,5.51749 c 0.008,0.10202 0.0235,0.15217 0.031,0.25787 0.10647,1.48367 0.13193,3.32971 0.0388,5.40432 -0.87967,1.04376 -2.35048,2.60864 -4.25762,3.94911 -3.17357,2.23061 -7.34491,3.78239 -12.04061,1.29708 -2.56357,-1.35684 -4.77667,-2.15614 -6.61768,-2.61121 5.30056,-1.49537 10.50841,-2.46972 14.84767,-3.83232 2.4469,-0.76838 4.63149,-1.65886 6.41253,-2.92954 0.60945,-0.43481 1.08759,-0.99478 1.58595,-1.53531 z m -0.0847,8.06411 c -0.001,0.0134 -0.002,0.0263 -0.003,0.0398 -0.17057,2.00809 -0.45421,4.16691 -0.86971,6.38928 -1.05701,0.96607 -2.85439,2.40724 -5.21467,3.52071 -3.88759,1.834 -9.15086,2.76939 -15.16393,-0.8909 -3.66834,-2.233 -8.80869,-2.58918 -13.0545,-2.45877 -1.23759,0.038 -2.38462,0.12284 -3.41272,0.2217 3.61771,-2.5203 7.63508,-4.2622 11.70937,-5.60173 0.0543,0.004 0.10061,0.004 0.15658,0.009 2.00393,0.16095 5.02784,0.83497 9.00772,2.94143 5.2598,2.78388 10.17742,1.01311 13.60537,-1.3963 1.27575,-0.89669 2.36888,-1.8854 3.23959,-2.77399 z m -32.70653,8.13025 c 2.14731,0.0124 4.38914,0.19848 6.47506,0.6749 0.13448,5.14576 1.64045,8.40454 4.02921,10.12858 2.50002,1.80433 5.73595,1.9137 8.85527,1.34979 3.60238,-0.65124 7.14228,-2.2151 9.49709,-3.42253 -0.46293,1.15455 -0.96869,2.29273 -1.52858,3.39927 -0.47157,0.93198 -0.97795,1.84093 -1.51981,2.72283 -0.24583,0.11346 -0.50616,0.23146 -0.8077,0.35915 -1.41382,0.59872 -3.40812,1.3138 -5.69371,1.77922 -4.57117,0.93083 -10.23912,0.87293 -14.9686,-2.97242 -0.004,-0.004 -0.009,-0.004 -0.0134,-0.008 l 0.002,-0.002 c -1.33169,-1.04166 -2.68426,-3.267 -3.65817,-5.97277 -0.88775,-2.4664 -1.42847,-5.31528 -1.58182,-8.03155 0.30218,-0.005 0.60688,-0.006 0.91364,-0.005 z m -2.41174,0.06 c 0.0902,1.63856 0.3268,3.27252 0.69091,4.89221 -4.37919,-0.25027 -8.46879,0.7908 -11.19259,1.73994 1.23519,-1.84772 2.60601,-3.46251 4.08347,-4.88032 0.46612,-0.44731 0.94602,-0.87078 1.43247,-1.28209 1.22554,-0.15398 3.00933,-0.35278 4.98574,-0.46974 z m 33.75815,0.60203 c -0.44782,1.96934 -1.00838,3.96363 -1.69086,5.92935 -2.02902,1.13364 -6.32581,3.32158 -10.56318,4.08761 -2.90425,0.52503 -5.69217,0.36523 -7.71115,-1.09192 -1.87234,-1.35132 -3.19205,-3.97575 -3.38274,-8.56279 0.9755,0.31089 1.88143,0.70116 2.67787,1.18597 6.44983,3.92615 12.38623,2.94568 16.58193,0.96635 1.62572,-0.76693 3.00443,-1.68095 4.08813,-2.51457 z m -34.72295,5.70249 c 0.67811,-0.0105 1.36577,0.009 2.05827,0.0661 0.19609,0.70558 0.33668,1.45019 0.5762,2.11563 0.44992,1.25003 0.99466,2.3635 1.5782,3.39411 -4.23578,-1.89066 -8.6471,-1.5887 -12.20495,-0.57206 -1.93324,0.55242 -3.63165,1.29152 -4.9506,1.96009 0.63159,-1.64137 1.34319,-3.1524 2.12442,-4.54598 2.05974,-0.87064 6.20606,-2.34668 10.81846,-2.41794 z m -2.25154,5.7366 c 2.9831,-0.0183 6.10895,0.71578 9.01857,3.08147 0.003,0.003 0.007,0.003 0.0103,0.006 8e-4,5.3e-4 0.001,0.001 0.002,0.002 5.1773,4.20201 11.38235,4.25329 16.20315,3.27163 1.77806,-0.36207 3.37482,-0.8631 4.68757,-1.3534 -2.11936,2.88796 -4.70784,5.37073 -7.86878,7.198 -3.03035,0.86981 -6.4057,0.62052 -9.73118,-0.58704 -5.04729,-1.83278 -9.84322,-5.96176 -12.91601,-11.60549 0.1975,-0.008 0.3954,-0.0122 0.59428,-0.0134 z m -2.29392,0.0935 c 0.96573,1.89372 2.13995,3.58409 3.4339,5.14077 -3.52499,-0.72241 -7.16807,0.15712 -10.10171,1.39836 -1.44784,0.61259 -2.72261,1.29655 -3.74706,1.90273 a 3.0003001,3.0003001 0 0 0 -0.0527,-0.0486 c 0.3675,-1.83487 0.81164,-3.54931 1.32654,-5.14904 1.28784,-0.75188 3.46657,-1.87506 6.10609,-2.62929 0.96009,-0.27434 1.98693,-0.47393 3.03495,-0.61495 z m 1.5782,6.40684 c 1.26504,0.022 2.51482,0.25954 3.70934,0.82166 l 0.0114,-0.0253 c 2.64041,2.59072 5.6509,4.5852 8.80463,5.73039 1.91149,0.69411 3.86846,1.0928 5.7919,1.16738 -0.11543,0.0379 -0.22958,0.0772 -0.34624,0.11368 -3.53295,1.10368 -7.68929,1.48848 -12.55013,0.90176 -0.99777,-0.30249 -1.89752,-0.6896 -2.774,-1.19269 -2.18762,-1.25571 -4.43203,-3.47471 -7.51995,-6.76548 1.59431,-0.45189 3.24661,-0.77972 4.87309,-0.75138 z m -6.52725,1.20251 c 2.75227,2.95765 4.82613,5.0929 6.86521,6.59081 -3.4701,-0.82064 -7.24944,-2.08784 -11.36364,-3.87469 a 3.0003001,3.0003001 0 0 0 -0.14211,-0.63097 c 0.96301,-0.56693 2.15645,-1.20368 3.50573,-1.77457 0.34764,-0.14709 0.77111,-0.17612 1.13481,-0.31058 z"
       style="color:#000000;font-style:normal;font-variant:normal;font-weight:normal;font-stretch:normal;font-size:medium;line-height:normal;font-family:sans-serif;font-variant-ligatures:normal;font-variant-position:normal;font-variant-caps:normal;font-variant-numeric:normal;font-variant-alternates:normal;font-feature-settings:normal;text-indent:0;text-align:start;text-decoration:none;text-decoration-line:none;text-decoration-style:solid;text-decoration-color:#000000;letter-spacing:normal;word-spacing:normal;text-transform:none;writing-mode:lr-tb;direction:ltr;text-orientation:mixed;dominant-baseline:auto;baseline-shift:baseline;text-anchor:start;white-space:normal;shape-padding:0;clip-rule:nonzero;display:none;overflow:visible;visibility:visible;opacity:1;isolation:auto;mix-blend-mode:normal;color-interpolation:sRGB;color-interpolation-filters:linearRGB;solid-color:#000000;solid-opacity:1;vector-effect:none;fill:#4dbd38;fill-opacity:1;fill-rule:nonzero;stroke:none;stroke-width:6;stroke-linecap:round;stroke-linejoin:miter;stroke-miterlimit:4;stroke-dasharray:none;stroke-dashoffset:0;stroke-opacity:1;color-rendering:auto;image-rendering:auto;shape-rendering:auto;text-rendering:auto;enable-background:accumulate" />
    <path
       style="display:none;fill:#ec0772;fill-opacity:1;stroke:#ffffff;stroke-width:6;stroke-miterlimit:4;stroke-dasharray:none;stroke-opacity:1"
       inkscape:connector-curvature="0"
       d="m 124.95723,118.58379 -0.79554,-0.79555 2.38667,-2.38666 4.37202,-4.37203 2.38667,-2.38669 0.79555,0.79558 1.59112,1.59111 14.0243,14.02429 c 0.73218,0.73219 1.26725,1.64039 1.56294,2.63307 l 2.49228,8.47653 c 0.176,0.59139 0.014,1.23206 -0.42946,1.66856 -0.44354,0.4365 -1.07718,0.59843 -1.66857,0.42946 l -8.46948,-2.49227 c -0.99269,-0.2957 -1.90089,-0.83076 -2.63308,-1.56295 l -14.02429,-14.0243 z m 17.62191,11.85588 0.64067,1.59816 c 0.28161,0.21824 0.59842,0.38017 0.93636,0.48578 l 5.50552,1.61927 -1.61927,-5.49849 c -0.0985,-0.34497 -0.26753,-0.66178 -0.48578,-0.93636 l -1.59815,-0.64066 v 2.2529 c 0,0.61954 -0.5069,1.12644 -1.12645,1.12644 h -2.2529 z m -14.27071,-26.80246 1.01381,1.02085 1.59111,1.5911 0.80259,0.79557 -2.38666,2.38666 -4.37205,4.37203 -2.38665,2.38667 -0.79555,-0.79556 -1.59111,-1.59111 -1.02085,-1.02084 c -1.76008,-1.76008 -1.76008,-4.61141 0,-6.37149 l 2.76683,-2.77388 c 1.76009,-1.76007 4.61141,-1.76007 6.37149,0 z m 3.33711,11.82773 10.13805,10.13805 c 0.4365,0.43649 1.15461,0.43649 1.59111,0 0.4365,-0.4365 0.4365,-1.15462 0,-1.59112 l -10.13806,-10.13804 c -0.4365,-0.4365 -1.1546,-0.4365 -1.5911,0 -0.4365,0.4365 -0.4365,1.15461 0,1.59111 z"
       id="path1070" />
    <path
       id="path1225"
       d="m 124.95723,118.58379 -0.79554,-0.79555 2.38667,-2.38666 4.37202,-4.37203 2.38667,-2.38669 0.79555,0.79558 1.59112,1.59111 14.0243,14.02429 c 0.73218,0.73219 1.26725,1.64039 1.56294,2.63307 l 2.49228,8.47653 c 0.176,0.59139 0.014,1.23206 -0.42946,1.66856 -0.44354,0.4365 -1.07718,0.59843 -1.66857,0.42946 l -8.46948,-2.49227 c -0.99269,-0.2957 -1.90089,-0.83076 -2.63308,-1.56295 l -14.02429,-14.0243 z m 17.62191,11.85588 0.64067,1.59816 c 0.28161,0.21824 0.59842,0.38017 0.93636,0.48578 l 5.50552,1.61927 -1.61927,-5.49849 c -0.0985,-0.34497 -0.26753,-0.66178 -0.48578,-0.93636 l -1.59815,-0.64066 v 2.2529 c 0,0.61954 -0.5069,1.12644 -1.12645,1.12644 h -2.2529 z m -14.27071,-26.80246 1.01381,1.02085 1.59111,1.5911 0.80259,0.79557 -2.38666,2.38666 -4.37205,4.37203 -2.38665,2.38667 -0.79555,-0.79556 -1.59111,-1.59111 -1.02085,-1.02084 c -1.76008,-1.76008 -1.76008,-4.61141 0,-6.37149 l 2.76683,-2.77388 c 1.76009,-1.76007 4.61141,-1.76007 6.37149,0 z m 3.33711,11.82773 10.13805,10.13805 c 0.4365,0.43649 1.15461,0.43649 1.59111,0 0.4365,-0.4365 0.4365,-1.15462 0,-1.59112 l -10.13806,-10.13804 c -0.4365,-0.4365 -1.1546,-0.4365 -1.5911,0 -0.4365,0.4365 -0.4365,1.15461 0,1.59111 z"
       inkscape:connector-curvature="0"
       style="display:inline;fill:#ec0772;fill-opacity:1;stroke-width:0.26458332" />
    <path
       style="color:#000000;font-style:normal;font-variant:normal;font-weight:normal;font-stretch:normal;font-size:medium;line-height:normal;font-family:sans-serif;font-variant-ligatures:normal;font-variant-position:normal;font-variant-caps:normal;font-variant-numeric:normal;font-variant-alternates:normal;font-feature-settings:normal;text-indent:0;text-align:start;text-decoration:none;text-decoration-line:none;text-decoration-style:solid;text-decoration-color:#000000;letter-spacing:normal;word-spacing:normal;text-transform:none;writing-mode:lr-tb;direction:ltr;text-orientation:mixed;dominant-baseline:auto;baseline-shift:baseline;text-anchor:start;white-space:normal;shape-padding:0;clip-rule:nonzero;display:inline;overflow:visible;visibility:visible;opacity:1;isolation:auto;mix-blend-mode:normal;color-interpolation:sRGB;color-interpolation-filters:linearRGB;solid-color:#000000;solid-opacity:1;vector-effect:none;fill:#4dbd38;fill-opacity:1;fill-rule:nonzero;stroke:none;stroke-width:22.67716599;stroke-linecap:round;stroke-linejoin:miter;stroke-miterlimit:4;stroke-dasharray:none;stroke-dashoffset:0;stroke-opacity:1;color-rendering:auto;image-rendering:auto;shape-rendering:auto;text-rendering:auto;enable-background:accumulate"
       d="m 267.51367,40.472656 a 5.6698583,5.6698583 0 0 0 -5.27929,4.244141 c -1.425,5.48606 -4.52812,9.498175 -9.68555,13.177734 -5.15747,3.679559 -12.38017,6.765446 -21.04492,9.486328 -17.3297,5.44184 -40.24559,9.455459 -63.76563,16.734375 -6.06862,1.878102 -12.1871,3.986181 -18.26953,6.400391 l 8.79687,8.794922 c 2.73668,-1.012465 5.48232,-1.987793 8.24024,-2.894531 0.20523,0.01512 0.38026,0.01431 0.5918,0.0332 7.5739,0.608315 19.00285,3.155764 34.04492,11.117191 19.87956,10.52175 38.46584,3.82908 51.42187,-5.27735 4.82174,-3.389062 8.95327,-7.125922 12.24414,-10.484372 -0.004,0.05065 -0.008,0.09937 -0.0117,0.15039 -0.64468,7.589632 -1.71672,15.748932 -3.28711,24.148442 -3.995,3.65128 -10.78825,9.09825 -19.70899,13.30664 -14.68182,6.92626 -34.55529,10.46046 -57.25976,-3.33594 2.07674,2.7559 3.73607,5.7933 4.91796,9.01953 21.28637,9.76447 40.63292,6.10876 54.75782,-0.55469 6.14445,-2.89863 11.35529,-6.35321 15.45117,-9.5039 -1.69255,7.44317 -3.81117,14.98066 -6.39063,22.41015 -7.66873,4.28463 -23.90857,12.55399 -39.92382,15.44922 -5.33575,0.9646 -10.56355,1.30967 -15.40821,0.78516 l 1.63477,5.56054 -0.0156,-0.0293 c 0.0302,0.10165 0.0517,0.20466 0.0801,0.30664 4.8284,0.27339 9.81063,-0.16349 14.71875,-1.05078 13.6153,-2.46138 26.99446,-8.37204 35.89453,-12.93555 -1.74965,4.36365 -3.66122,8.66546 -5.77734,12.84766 -1.78231,3.52244 -3.69617,6.95785 -5.74414,10.29101 -0.92912,0.42883 -1.91306,0.87482 -3.05274,1.35742 -5.34357,2.26288 -12.88108,4.96555 -21.51953,6.72461 -6.60016,1.344 -13.80625,2.13338 -21.1875,1.79688 -4.36878,3.15104 -10.05725,4.23086 -15.32226,2.72656 l -0.043,-0.0156 -10.22852,-3.00782 c 16.26688,7.47372 33.68491,6.95764 47.91211,4.06055 6.72023,-1.36845 12.75522,-3.26213 17.7168,-5.11523 -8.01018,10.91512 -17.79338,20.29886 -29.74024,27.20507 -11.45329,3.28747 -24.21055,2.34526 -36.77929,-2.21875 -19.07637,-6.92704 -37.20271,-22.53264 -48.81641,-43.86328 0.74646,-0.0302 1.49442,-0.0462 2.2461,-0.0508 2.10112,-0.0129 4.22174,0.0732 6.35156,0.2793 l -6.08789,-6.08789 c -7.79853,-0.11024 -15.27837,1.12955 -21.960941,3.03906 -7.306733,2.08789 -13.725929,4.88132 -18.710937,7.4082 2.387112,-6.2036 5.076616,-11.91456 8.029297,-17.18164 4.378975,-1.85096 11.253757,-4.42632 19.533201,-6.37304 l -4.58594,-4.5879 c -3.728302,0.96665 -7.135753,2.0264 -10.103511,3.06055 1.779363,-2.66175 3.634405,-5.19394 5.55664,-7.60742 l -8.074218,-8.07227 c -13.48065,16.49526 -23.994277,38.0241 -29.603516,66.19336 a 11.339717,11.339717 0 0 0 -1.166016,0.50391 c 0,0 -22.00535,11.38014 -37.78125,41 a 11.339717,11.339717 0 1 0 20.013672,10.66602 c 12.997531,-24.40336 27.867188,-31.35743 27.867188,-31.35743 a 11.339717,11.339717 0 0 0 1.576172,-0.9375 c 49.363539,21.5079 87.922909,24.27109 117.744139,14.95508 31.61753,-9.87715 52.67939,-33.19506 66.07422,-59.66797 13.39483,-26.47287 19.43632,-56.24629 21.50391,-80.587888 1.03381,-12.170796 1.06357,-22.970763 0.45703,-31.423828 -0.3035,-4.226532 -0.75661,-7.866258 -1.37305,-10.882812 -0.61648,-3.016517 -1.12673,-5.28274 -2.80469,-7.699219 a 5.6698583,5.6698583 0 0 0 -4.86328,-2.435547 z m -2.38476,20.853516 c 0.0302,0.385587 0.0888,0.575113 0.11718,0.974609 0.40241,5.607572 0.49848,12.584736 0.14649,20.425781 -3.32474,3.94492 -8.88371,9.859438 -16.0918,14.925782 -11.99459,8.430656 -27.76028,14.295646 -45.50781,4.902346 -9.68908,-5.128217 -18.05357,-8.149194 -25.01172,-9.869143 20.03361,-5.651792 39.71683,-9.334391 56.11719,-14.484375 9.24812,-2.904114 17.50484,-6.269696 24.23633,-11.072266 2.30343,-1.643376 4.11057,-3.759786 5.99414,-5.802734 z M 111.25195,168.62305 c 3.65001,7.15736 8.088,13.54617 12.97852,19.42968 -13.3228,-2.73036 -27.091916,0.59386 -38.179689,5.28516 -5.472151,2.3153 -10.290172,4.90033 -14.162109,7.19141 a 11.339717,11.339717 0 0 0 -0.199219,-0.1836 c 1.388977,-6.93494 3.067593,-13.41471 5.013672,-19.46093 4.867427,-2.84176 13.101986,-7.08687 23.078125,-9.9375 3.62869,-1.03688 7.50968,-1.79123 11.4707,-2.32422 z m 5.96485,24.21484 c 4.78125,0.0832 9.50481,0.98092 14.01953,3.10547 l 0.043,-0.0957 c 9.9795,9.79169 21.35773,17.32992 33.27734,21.6582 7.22453,2.62341 14.62093,4.13023 21.89063,4.41211 -0.43628,0.14324 -0.86768,0.29181 -1.3086,0.42969 -13.35288,4.17139 -29.06191,5.62572 -47.43359,3.4082 -3.7711,-1.14327 -7.1717,-2.60637 -10.48438,-4.50781 -8.26817,-4.74599 -16.75099,-13.13276 -28.421872,-25.57032 6.025742,-1.70793 12.270642,-2.94695 18.417972,-2.83984 z m -24.669925,4.54492 c 10.402285,11.17852 18.240505,19.24877 25.947265,24.91016 -13.11534,-3.10163 -27.399486,-7.89108 -42.949218,-14.64453 a 11.339717,11.339717 0 0 0 -0.53711,-2.38477 c 3.639723,-2.14273 8.15036,-4.54933 13.25,-6.70703 1.313915,-0.55593 2.914449,-0.66563 4.289063,-1.17383 z"
       transform="matrix(0.26458333,0,0,0.26458333,103.84707,90.53856)"
       id="path1076"
       inkscape:connector-curvature="0"
       inkscape:label="merged contours" />
  </g>
</svg>
